# xmcd CD database file
#
# Track frame offsets:
#	182
#	13710
#	29410
#	45171
#	60610
#	74270
#	87467
#	100110
#	114012
#	127078
#	139504
#	152590
#	166342
#	178774
#	191525
#	203727
#	218033
#	230889
#	242725
#	255431
#	268009
#	281709
#	293225
#	305511
#	319614
#
# Disc length: 4449 seconds
#
# Revision: 1
# Processed by: cddbd v1.5.2PL0 Copyright (c) Steve Scherf et al.
# Submitted via: CDex 1.70beta2
#
DISCID=63115f19
DTITLE=Various Artist - Classics Complementary Tracks - Classics - D2
DYEAR=1935
DGENRE=Swing
TTITLE0=I Got Rhythm
TTITLE1=St. Louis Blues
TTITLE2=Lazy Bones
TTITLE3=Dinah
TTITLE4=King Porter Stomp
TTITLE5=Moten Swing
TTITLE6=Minor Riff
TTITLE7=Satchel Mouth Baby
TTITLE8=Close Your Eyes
TTITLE9=This Is Everything I Prayed For
TTITLE10=Again
TTITLE11=Ain't I Losing You
TTITLE12=Of All the Wrongs You Done to Me
TTITLE13=Terrible Blues
TTITLE14=Snta Claus Blues
TTITLE15=Cake Walking Babies from Home
TTITLE16=Lucy Long
TTITLE17=I Ain't Gonna Play No Second Fiddle
TTITLE18=If You Can't Hold the Man You Love
TTITLE19=Blue Devil Blues
TTITLE20=Squabblin'
TTITLE21=Smoke-House Blues
TTITLE22=Beau-Koo Jack
TTITLE23=Exactly Like You
TTITLE24=Froglegs and Bourbon
EXTD=YEAR: 1935
EXTT0=
EXTT1=
EXTT2=
EXTT3=
EXTT4=
EXTT5=
EXTT6=
EXTT7=
EXTT8=
EXTT9=
EXTT10=
EXTT11=
EXTT12=
EXTT13=
EXTT14=
EXTT15=
EXTT16=
EXTT17=
EXTT18=
EXTT19=
EXTT20=
EXTT21=
EXTT22=
EXTT23=
EXTT24=
PLAYORDER=
